<?xml version="1.0" encoding="utf-8"?>
<svg version="1.1" xmlns="http://www.w3.org/2000/svg" xmlns:xlink="http://www.w3.org/1999/xlink" x="0px" y="0px" viewBox="0 0 128 128" style="enable-background:new 0 0 128 128;" xml:space="preserve">
<g>
  <!-- wooden side rails -->
  <line x1="24" y1="22" x2="24" y2="110" style="fill:none;stroke:#a9714a;stroke-width:9;stroke-linecap:round;"/>
  <line x1="106" y1="26" x2="70" y2="106" style="fill:none;stroke:#a9714a;stroke-width:9;stroke-linecap:round;"/>
  <!-- rainbow bars (longest at top) -->
  <g>
    <rect x="26" y="24" width="76" height="9" rx="4.5" style="fill:#ff4d4d;"/>
    <rect x="26" y="36" width="70" height="9" rx="4.5" style="fill:#ff9a3c;"/>
    <rect x="26" y="48" width="64" height="9" rx="4.5" style="fill:#ffd23c;"/>
    <rect x="26" y="60" width="58" height="9" rx="4.5" style="fill:#46d160;"/>
    <rect x="26" y="72" width="52" height="9" rx="4.5" style="fill:#3da5ff;"/>
    <rect x="26" y="84" width="46" height="9" rx="4.5" style="fill:#8a6cff;"/>
    <rect x="26" y="96" width="40" height="9" rx="4.5" style="fill:#ff5ca8;"/>
  </g>
  <!-- screw heads at the bar ends -->
  <g style="fill:#7c5232;">
    <circle cx="30" cy="28.5" r="2"/>
    <circle cx="30" cy="40.5" r="2"/>
    <circle cx="30" cy="52.5" r="2"/>
    <circle cx="30" cy="64.5" r="2"/>
    <circle cx="30" cy="76.5" r="2"/>
    <circle cx="30" cy="88.5" r="2"/>
    <circle cx="30" cy="100.5" r="2"/>
    <circle cx="97" cy="28.5" r="2"/>
    <circle cx="91" cy="40.5" r="2"/>
    <circle cx="85" cy="52.5" r="2"/>
    <circle cx="79" cy="64.5" r="2"/>
    <circle cx="73" cy="76.5" r="2"/>
    <circle cx="67" cy="88.5" r="2"/>
    <circle cx="61" cy="100.5" r="2"/>
  </g>
  <!-- two mallets crossing -->
  <g>
    <line x1="62" y1="86" x2="100" y2="118" style="fill:none;stroke:#c98a52;stroke-width:4;stroke-linecap:round;"/>
    <line x1="84" y1="82" x2="116" y2="116" style="fill:none;stroke:#c98a52;stroke-width:4;stroke-linecap:round;"/>
    <circle cx="60" cy="84" r="6" style="fill:#e8453c;"/>
    <circle cx="82" cy="80" r="6" style="fill:#2f6fd0;"/>
  </g>
</g>
</svg>
